<svg xmlns="http://www.w3.org/2000/svg" width="1280" height="760" viewBox="0 0 1280 760" role="img" aria-labelledby="title desc">
  <title id="title">分段：每个段内部连续，不同段之间可以分散</title>
  <desc id="desc">左侧是可变长度的代码段、数据段和栈段，中间段表记录基址和段长，右侧每个段分别占据一块连续物理空间，但段与段之间不相邻。</desc>
  <defs>
    <marker id="arrow-gray" markerWidth="10" markerHeight="10" refX="9" refY="5" orient="auto" markerUnits="userSpaceOnUse"><path d="M0,0 L10,5 L0,10 Z" fill="#64748b"/></marker><marker id="arrow-blue" markerWidth="10" markerHeight="10" refX="9" refY="5" orient="auto" markerUnits="userSpaceOnUse"><path d="M0,0 L10,5 L0,10 Z" fill="#2563eb"/></marker><marker id="arrow-green" markerWidth="10" markerHeight="10" refX="9" refY="5" orient="auto" markerUnits="userSpaceOnUse"><path d="M0,0 L10,5 L0,10 Z" fill="#16a34a"/></marker><marker id="arrow-orange" markerWidth="10" markerHeight="10" refX="9" refY="5" orient="auto" markerUnits="userSpaceOnUse"><path d="M0,0 L10,5 L0,10 Z" fill="#ea580c"/></marker><marker id="arrow-purple" markerWidth="10" markerHeight="10" refX="9" refY="5" orient="auto" markerUnits="userSpaceOnUse"><path d="M0,0 L10,5 L0,10 Z" fill="#7e22ce"/></marker><marker id="arrow-red" markerWidth="10" markerHeight="10" refX="9" refY="5" orient="auto" markerUnits="userSpaceOnUse"><path d="M0,0 L10,5 L0,10 Z" fill="#dc2626"/></marker>
    <filter id="shadow" x="-20%" y="-20%" width="140%" height="140%"><feDropShadow dx="0" dy="3" stdDeviation="4" flood-color="#0f172a" flood-opacity="0.13"/></filter>
    <pattern id="holes" width="10" height="10" patternUnits="userSpaceOnUse" patternTransform="rotate(45)"><rect width="10" height="10" fill="#fff7ed"/><line x1="0" y1="0" x2="0" y2="10" stroke="#fdba74" stroke-width="3"/></pattern>
  </defs>
  <rect width="100%" height="100%" fill="#ffffff"/>
  <text fill="#172033" font-family="'PingFang SC','Hiragino Sans GB','Microsoft YaHei','Noto Sans CJK SC',-apple-system,BlinkMacSystemFont,'Segoe UI',sans-serif" font-size="29" font-weight="700" text-anchor="middle"><tspan x="640" y="45.09">分段：段内连续，段与段之间可以分散</tspan></text>
  <text fill="#475569" font-family="'PingFang SC','Hiragino Sans GB','Microsoft YaHei','Noto Sans CJK SC',-apple-system,BlinkMacSystemFont,'Segoe UI',sans-serif" font-size="17" font-weight="400" text-anchor="middle"><tspan x="640" y="81.57000000000001">段按代码、数据、栈等逻辑意义划分，大小可以不同（空间位置为示意，不按比例）</tspan></text>
  <rect x="30" y="118" width="300" height="520" rx="18" fill="#f8fafc" stroke="#cbd5e1" stroke-width="1.5" filter="url(#shadow)" opacity="1"/>
  <text fill="#172033" font-family="'PingFang SC','Hiragino Sans GB','Microsoft YaHei','Noto Sans CJK SC',-apple-system,BlinkMacSystemFont,'Segoe UI',sans-serif" font-size="22" font-weight="700" text-anchor="middle"><tspan x="180" y="157.61999999999998">① 进程的逻辑段</tspan></text>
  <rect x="390" y="118" width="310" height="520" rx="18" fill="#f8fafc" stroke="#cbd5e1" stroke-width="1.5" filter="url(#shadow)" opacity="1"/>
  <text fill="#172033" font-family="'PingFang SC','Hiragino Sans GB','Microsoft YaHei','Noto Sans CJK SC',-apple-system,BlinkMacSystemFont,'Segoe UI',sans-serif" font-size="22" font-weight="700" text-anchor="middle"><tspan x="545" y="157.61999999999998">② 段表</tspan></text>
  <rect x="810" y="118" width="420" height="520" rx="18" fill="#f8fafc" stroke="#cbd5e1" stroke-width="1.5" filter="url(#shadow)" opacity="1"/>
  <text fill="#172033" font-family="'PingFang SC','Hiragino Sans GB','Microsoft YaHei','Noto Sans CJK SC',-apple-system,BlinkMacSystemFont,'Segoe UI',sans-serif" font-size="22" font-weight="700" text-anchor="middle"><tspan x="1020" y="157.61999999999998">③ 物理内存</tspan></text>
  <polygon points="82,192 93,181 283,181 272,192" fill="#e2f1ff" stroke="#2563eb" stroke-width="1.2"/>
  <polygon points="272,192 283,181 283,301 272,312" fill="#b4c0d0" stroke="#2563eb" stroke-width="1.2"/>
  <rect x="82" y="192" width="190" height="120" rx="6" fill="#dbeafe" stroke="#2563eb" stroke-width="1.5" filter="url(#shadow)" opacity="1"/>
  <text fill="#172033" font-family="'PingFang SC','Hiragino Sans GB','Microsoft YaHei','Noto Sans CJK SC',-apple-system,BlinkMacSystemFont,'Segoe UI',sans-serif" font-size="19" font-weight="700" text-anchor="middle"><tspan x="177" y="226.99">段 0：代码段</tspan></text>
  <text fill="#475569" font-family="'PingFang SC','Hiragino Sans GB','Microsoft YaHei','Noto Sans CJK SC',-apple-system,BlinkMacSystemFont,'Segoe UI',sans-serif" font-size="15" font-weight="450" text-anchor="middle"><tspan x="177" y="274.15">段内偏移 0～799</tspan></text>
  <polygon points="82,350 93,339 283,339 272,350" fill="#e3ffee" stroke="#16a34a" stroke-width="1.2"/>
  <polygon points="272,350 283,339 283,431 272,442" fill="#b4cfbd" stroke="#16a34a" stroke-width="1.2"/>
  <rect x="82" y="350" width="190" height="92" rx="6" fill="#dcfce7" stroke="#16a34a" stroke-width="1.5" filter="url(#shadow)" opacity="1"/>
  <text fill="#172033" font-family="'PingFang SC','Hiragino Sans GB','Microsoft YaHei','Noto Sans CJK SC',-apple-system,BlinkMacSystemFont,'Segoe UI',sans-serif" font-size="19" font-weight="700" text-anchor="middle"><tspan x="177" y="384.98999999999995">段 1：数据段</tspan></text>
  <text fill="#475569" font-family="'PingFang SC','Hiragino Sans GB','Microsoft YaHei','Noto Sans CJK SC',-apple-system,BlinkMacSystemFont,'Segoe UI',sans-serif" font-size="15" font-weight="450" text-anchor="middle"><tspan x="177" y="418.15">段内偏移 0～499</tspan></text>
  <polygon points="82,480 93,469 283,469 272,480" fill="#fff4db" stroke="#ea580c" stroke-width="1.2"/>
  <polygon points="272,480 283,469 283,543 272,554" fill="#d1c2af" stroke="#ea580c" stroke-width="1.2"/>
  <rect x="82" y="480" width="190" height="74" rx="6" fill="#ffedd5" stroke="#ea580c" stroke-width="1.5" filter="url(#shadow)" opacity="1"/>
  <text fill="#172033" font-family="'PingFang SC','Hiragino Sans GB','Microsoft YaHei','Noto Sans CJK SC',-apple-system,BlinkMacSystemFont,'Segoe UI',sans-serif" font-size="19" font-weight="700" text-anchor="middle"><tspan x="177" y="514.99">段 2：栈段</tspan></text>
  <text fill="#475569" font-family="'PingFang SC','Hiragino Sans GB','Microsoft YaHei','Noto Sans CJK SC',-apple-system,BlinkMacSystemFont,'Segoe UI',sans-serif" font-size="15" font-weight="450" text-anchor="middle"><tspan x="177" y="539.15">段内偏移 0～299</tspan></text>
  <rect x="430" y="182" width="230" height="50" rx="6" fill="#e2e8f0" stroke="#94a3b8" stroke-width="1.5" opacity="1"/>
  <text fill="#172033" font-family="'PingFang SC','Hiragino Sans GB','Microsoft YaHei','Noto Sans CJK SC',-apple-system,BlinkMacSystemFont,'Segoe UI',sans-serif" font-size="18" font-weight="700" text-anchor="middle"><tspan x="545" y="210.78">段号｜基址｜段长</tspan></text>
  <rect x="430" y="240" width="230" height="64" rx="7" fill="#dbeafe" stroke="#2563eb" stroke-width="1.5" opacity="1"/>
  <text fill="#172033" font-family="'PingFang SC','Hiragino Sans GB','Microsoft YaHei','Noto Sans CJK SC',-apple-system,BlinkMacSystemFont,'Segoe UI',sans-serif" font-size="18" font-weight="650" text-anchor="middle"><tspan x="545" y="275.78000000000003">0｜1000｜800B</tspan></text>
  <rect x="430" y="330" width="230" height="64" rx="7" fill="#dcfce7" stroke="#16a34a" stroke-width="1.5" opacity="1"/>
  <text fill="#172033" font-family="'PingFang SC','Hiragino Sans GB','Microsoft YaHei','Noto Sans CJK SC',-apple-system,BlinkMacSystemFont,'Segoe UI',sans-serif" font-size="18" font-weight="650" text-anchor="middle"><tspan x="545" y="365.78000000000003">1｜5000｜500B</tspan></text>
  <rect x="430" y="420" width="230" height="64" rx="7" fill="#ffedd5" stroke="#ea580c" stroke-width="1.5" opacity="1"/>
  <text fill="#172033" font-family="'PingFang SC','Hiragino Sans GB','Microsoft YaHei','Noto Sans CJK SC',-apple-system,BlinkMacSystemFont,'Segoe UI',sans-serif" font-size="18" font-weight="650" text-anchor="middle"><tspan x="545" y="455.78000000000003">2｜9000｜300B</tspan></text>
  <text fill="#475569" font-family="'PingFang SC','Hiragino Sans GB','Microsoft YaHei','Noto Sans CJK SC',-apple-system,BlinkMacSystemFont,'Segoe UI',sans-serif" font-size="16" font-weight="500" text-anchor="middle"><tspan x="545" y="535.96">基址：段在物理内存的起点</tspan><tspan x="545" y="556.76">段长：允许的段内偏移范围</tspan></text>
  <polygon points="990,180 999,171 1169,171 1160,180" fill="#e9eff7" stroke="#94a3b8" stroke-width="1.2"/>
  <polygon points="1160,180 1169,171 1169,227 1160,236" fill="#b9bec5" stroke="#94a3b8" stroke-width="1.2"/>
  <rect x="990" y="180" width="170" height="56" rx="2" fill="#e2e8f0" stroke="#94a3b8" stroke-width="1.5" filter="url(#shadow)" opacity="1"/>
  <text fill="#475569" font-family="'PingFang SC','Hiragino Sans GB','Microsoft YaHei','Noto Sans CJK SC',-apple-system,BlinkMacSystemFont,'Segoe UI',sans-serif" font-size="14" font-weight="500" text-anchor="middle"><tspan x="1075" y="210.94">操作系统/其他</tspan></text>
  <polygon points="990,238 999,229 1169,229 1160,238" fill="#e2f1ff" stroke="#2563eb" stroke-width="1.2"/>
  <polygon points="1160,238 1169,229 1169,335 1160,344" fill="#b4c0d0" stroke="#2563eb" stroke-width="1.2"/>
  <rect x="990" y="238" width="170" height="106" rx="2" fill="#dbeafe" stroke="#2563eb" stroke-width="1.5" filter="url(#shadow)" opacity="1"/>
  <text fill="#172033" font-family="'PingFang SC','Hiragino Sans GB','Microsoft YaHei','Noto Sans CJK SC',-apple-system,BlinkMacSystemFont,'Segoe UI',sans-serif" font-size="15" font-weight="700" text-anchor="middle"><tspan x="1075" y="284.4">代码段</tspan><tspan x="1075" y="303.9">1000～1799</tspan></text>
  <polygon points="990,346 999,337 1169,337 1160,346" fill="#fff7ed" stroke="#ea580c" stroke-width="1.2"/>
  <polygon points="1160,346 1169,337 1169,387 1160,396" fill="#fdba74" stroke="#ea580c" stroke-width="1.2"/>
  <rect x="990" y="346" width="170" height="50" rx="2" fill="url(#holes)" stroke="#ea580c" stroke-width="1.5" filter="url(#shadow)" opacity="1"/>
  <text fill="#475569" font-family="'PingFang SC','Hiragino Sans GB','Microsoft YaHei','Noto Sans CJK SC',-apple-system,BlinkMacSystemFont,'Segoe UI',sans-serif" font-size="14" font-weight="500" text-anchor="middle"><tspan x="1075" y="373.94">空闲孔洞</tspan></text>
  <polygon points="990,398 999,389 1169,389 1160,398" fill="#f8fcff" stroke="#94a3b8" stroke-width="1.2"/>
  <polygon points="1160,398 1169,389 1169,451 1160,460" fill="#c6c9cc" stroke="#94a3b8" stroke-width="1.2"/>
  <rect x="990" y="398" width="170" height="62" rx="2" fill="#f1f5f9" stroke="#94a3b8" stroke-width="1.5" filter="url(#shadow)" opacity="1"/>
  <text fill="#475569" font-family="'PingFang SC','Hiragino Sans GB','Microsoft YaHei','Noto Sans CJK SC',-apple-system,BlinkMacSystemFont,'Segoe UI',sans-serif" font-size="14" font-weight="500" text-anchor="middle"><tspan x="1075" y="431.94">其他进程</tspan></text>
  <polygon points="990,462 999,453 1169,453 1160,462" fill="#e3ffee" stroke="#16a34a" stroke-width="1.2"/>
  <polygon points="1160,462 1169,453 1169,523 1160,532" fill="#b4cfbd" stroke="#16a34a" stroke-width="1.2"/>
  <rect x="990" y="462" width="170" height="70" rx="2" fill="#dcfce7" stroke="#16a34a" stroke-width="1.5" filter="url(#shadow)" opacity="1"/>
  <text fill="#172033" font-family="'PingFang SC','Hiragino Sans GB','Microsoft YaHei','Noto Sans CJK SC',-apple-system,BlinkMacSystemFont,'Segoe UI',sans-serif" font-size="15" font-weight="700" text-anchor="middle"><tspan x="1075" y="490.4">数据段</tspan><tspan x="1075" y="509.9">5000～5499</tspan></text>
  <polygon points="990,534 999,525 1169,525 1160,534" fill="#fff7ed" stroke="#ea580c" stroke-width="1.2"/>
  <polygon points="1160,534 1169,525 1169,565 1160,574" fill="#fdba74" stroke="#ea580c" stroke-width="1.2"/>
  <rect x="990" y="534" width="170" height="40" rx="2" fill="url(#holes)" stroke="#ea580c" stroke-width="1.5" filter="url(#shadow)" opacity="1"/>
  <text fill="#475569" font-family="'PingFang SC','Hiragino Sans GB','Microsoft YaHei','Noto Sans CJK SC',-apple-system,BlinkMacSystemFont,'Segoe UI',sans-serif" font-size="14" font-weight="500" text-anchor="middle"><tspan x="1075" y="556.9399999999999">空闲孔洞</tspan></text>
  <polygon points="990,576 999,567 1169,567 1160,576" fill="#fff4db" stroke="#ea580c" stroke-width="1.2"/>
  <polygon points="1160,576 1169,567 1169,621 1160,630" fill="#d1c2af" stroke="#ea580c" stroke-width="1.2"/>
  <rect x="990" y="576" width="170" height="54" rx="2" fill="#ffedd5" stroke="#ea580c" stroke-width="1.5" filter="url(#shadow)" opacity="1"/>
  <text fill="#172033" font-family="'PingFang SC','Hiragino Sans GB','Microsoft YaHei','Noto Sans CJK SC',-apple-system,BlinkMacSystemFont,'Segoe UI',sans-serif" font-size="15" font-weight="700" text-anchor="middle"><tspan x="1075" y="596.4">栈段</tspan><tspan x="1075" y="615.9">9000～9299</tspan></text>
  <text fill="#475569" font-family="'PingFang SC','Hiragino Sans GB','Microsoft YaHei','Noto Sans CJK SC',-apple-system,BlinkMacSystemFont,'Segoe UI',sans-serif" font-size="15" font-weight="500" text-anchor="middle"><tspan x="900" y="206.15">低地址</tspan></text>
  <text fill="#475569" font-family="'PingFang SC','Hiragino Sans GB','Microsoft YaHei','Noto Sans CJK SC',-apple-system,BlinkMacSystemFont,'Segoe UI',sans-serif" font-size="15" font-weight="500" text-anchor="middle"><tspan x="900" y="616.15">高地址</tspan></text>
  <polyline points="900,220 900,590" fill="none" stroke="#64748b" stroke-width="1.8" stroke-linecap="round" stroke-linejoin="round" marker-end="url(#arrow-gray)"/>
  <polyline points="282,252 370,252 370,272 418,272" fill="none" stroke="#2563eb" stroke-width="2.2" stroke-linecap="round" stroke-linejoin="round" marker-end="url(#arrow-blue)"/>
  <polyline points="282,396 370,396 370,362 418,362" fill="none" stroke="#16a34a" stroke-width="2.2" stroke-linecap="round" stroke-linejoin="round" marker-end="url(#arrow-green)"/>
  <polyline points="282,517 370,517 370,452 418,452" fill="none" stroke="#ea580c" stroke-width="2.2" stroke-linecap="round" stroke-linejoin="round" marker-end="url(#arrow-orange)"/>
  <polyline points="672,272 735,272 735,291 978,291" fill="none" stroke="#2563eb" stroke-width="2.4" stroke-linecap="round" stroke-linejoin="round" marker-end="url(#arrow-blue)"/>
  <polyline points="672,362 769,362 769,497 978,497" fill="none" stroke="#16a34a" stroke-width="2.4" stroke-linecap="round" stroke-linejoin="round" marker-end="url(#arrow-green)"/>
  <polyline points="672,452 803,452 803,603 978,603" fill="none" stroke="#ea580c" stroke-width="2.4" stroke-linecap="round" stroke-linejoin="round" marker-end="url(#arrow-orange)"/>
  <rect x="90" y="674" width="1100" height="58" rx="14" fill="#ffedd5" stroke="#ea580c" stroke-width="1.5" opacity="1"/>
  <text fill="#172033" font-family="'PingFang SC','Hiragino Sans GB','Microsoft YaHei','Noto Sans CJK SC',-apple-system,BlinkMacSystemFont,'Segoe UI',sans-serif" font-size="20" font-weight="650" text-anchor="middle"><tspan x="640" y="707.2">关键：每个段只需一个“基址 + 段长”，因此段内部必须连续；不同段可以放在不同位置。</tspan></text>
</svg>
